HIERARCHY
ROOT Hips
{
	OFFSET 0.00000 0.00000 0.00000
	CHANNELS 6 Xposition Yposition Zposition Zrotation Yrotation Xrotation 
	JOINT LHipJoint
	{
		OFFSET 0 0 0
		CHANNELS 3 Zrotation Yrotation Xrotation
		JOINT LeftUpLeg
		{
			OFFSET 1.84395 -1.68683 0.74144
			CHANNELS 3 Zrotation Yrotation Xrotation
			JOINT LeftLeg
			{
				OFFSET 2.27037 -6.23779 0.00000
				CHANNELS 3 Zrotation Yrotation Xrotation
				JOINT LeftFoot
				{
					OFFSET 2.56918 -7.05877 0.00000
					CHANNELS 3 Zrotation Yrotation Xrotation
					JOINT LeftToeBase
					{
						OFFSET 0.22276 -0.61202 1.71784
						CHANNELS 3 Zrotation Yrotation Xrotation
						End Site
						{
							OFFSET 0.00000 -0.00000 0.91613
						}
					}
				}
			}
		}
	}
	JOINT RHipJoint
	{
		OFFSET 0 0 0
		CHANNELS 3 Zrotation Yrotation Xrotation
		JOINT RightUpLeg
		{
			OFFSET -1.76833 -1.68684 0.74144
			CHANNELS 3 Zrotation Yrotation Xrotation
			JOINT RightLeg
			{
				OFFSET -2.49360 -6.85110 0.00000
				CHANNELS 3 Zrotation Yrotation Xrotation
				JOINT RightFoot
				{
					OFFSET -2.55538 -7.02085 0.00000
					CHANNELS 3 Zrotation Yrotation Xrotation
					JOINT RightToeBase
					{
						OFFSET -0.21516 -0.59115 1.68050
						CHANNELS 3 Zrotation Yrotation Xrotation
						End Site
						{
							OFFSET -0.00000 -0.00000 0.89604
						}
					}
				}
			}
		}
	}
	JOINT LowerBack
	{
		OFFSET 0 0 0
		CHANNELS 3 Zrotation Yrotation Xrotation
		JOINT Spine
		{
			OFFSET 0.06382 1.72312 -0.19613
			CHANNELS 3 Zrotation Yrotation Xrotation
			JOINT Spine1
			{
				OFFSET -0.00055 1.73507 0.23859
				CHANNELS 3 Zrotation Yrotation Xrotation
				JOINT Neck
				{
					OFFSET 0 0 0
					CHANNELS 3 Zrotation Yrotation Xrotation
					JOINT Neck1
					{
						OFFSET 0.03638 1.65562 0.09633
						CHANNELS 3 Zrotation Yrotation Xrotation
						JOINT Head
						{
							OFFSET 0.06388 1.62807 -0.32386
							CHANNELS 3 Zrotation Yrotation Xrotation
							End Site
							{
								OFFSET 0.00995 1.67644 -0.12021
							}
						}
					}
				}
				JOINT LeftShoulder
				{
					OFFSET 0 0 0
					CHANNELS 3 Zrotation Yrotation Xrotation
					JOINT LeftArm
					{
						OFFSET 3.09648 1.42991 0.28122
						CHANNELS 3 Zrotation Yrotation Xrotation
						JOINT LeftForeArm
						{
							OFFSET 5.11878 -0.00000 -0.00000
							CHANNELS 3 Zrotation Yrotation Xrotation
							JOINT LeftHand
							{
								OFFSET 3.59971 -0.00000 0.00000
								CHANNELS 3 Zrotation Yrotation Xrotation
								JOINT LeftFingerBase
								{
									OFFSET 0 0 0
									CHANNELS 3 Zrotation Yrotation Xrotation
									JOINT LeftHandIndex1
									{
										OFFSET 0.62877 -0.00000 0.00000
										CHANNELS 3 Zrotation Yrotation Xrotation
										End Site
										{
											OFFSET 0.50693 -0.00000 0.00000
										}
									}
								}
								JOINT LThumb
								{
									OFFSET 0 0 0
									CHANNELS 3 Zrotation Yrotation Xrotation
									End Site
									{
										OFFSET 0.51467 -0.00000 0.51467
									}
								}
							}
						}
					}
				}
				JOINT RightShoulder
				{
					OFFSET 0 0 0
					CHANNELS 3 Zrotation Yrotation Xrotation
					JOINT RightArm
					{
						OFFSET -3.33565 1.14597 0.05047
						CHANNELS 3 Zrotation Yrotation Xrotation
						JOINT RightForeArm
						{
							OFFSET -5.49020 -0.00000 0.00000
							CHANNELS 3 Zrotation Yrotation Xrotation
							JOINT RightHand
							{
								OFFSET -3.20659 -0.00000 -0.00000
								CHANNELS 3 Zrotation Yrotation Xrotation
								JOINT RightFingerBase
								{
									OFFSET 0 0 0
									CHANNELS 3 Zrotation Yrotation Xrotation
									JOINT RightHandIndex1
									{
										OFFSET -0.69188 -0.00000 0.00000
										CHANNELS 3 Zrotation Yrotation Xrotation
										End Site
										{
											OFFSET -0.55781 -0.00000 0.00000
										}
									}
								}
								JOINT RThumb
								{
									OFFSET 0 0 0
									CHANNELS 3 Zrotation Yrotation Xrotation
									End Site
									{
										OFFSET -0.56633 -0.00000 0.56633
									}
								}
							}
						}
					}
				}
			}
		}
	}
}
MOTION
Frames: 8
Frame Time: .0083333
-0.5618 17.4736 8.1141 0 0 0 0 0 0 -21 0 0 0 0 0 0 0 0 0 0 0 0 0 0 21 0 0 0 0 0 0 0 0 0 0 0 0 0 0 0 0 0 0 0 0 0 0 -16 0 0 21 0 0 11 0 0 0 -8 0 0 0 0 0 0 0 0 0 0 0 0 0 0 0 0 0 0 0 0 8 0 0 0 0 0 0 0 0 0 0 0 0 0 0 0 0 0
-0.5618 17.4736 8.1141 -5.9938 -0.3725 8.1280 0.0000 0.0000 0.0000 -20.8976 -36.0585 20.8982 0.0337 -1.1842 -3.2558 -5.2810 40.8108 -37.3636 0.3076 3.5657 9.8579 0.0000 0.0000 0.0000 25.1230 23.8907 6.7101 -0.0089 -0.6102 1.6767 0.5727 -17.2118 -18.0966 -0.0182 -0.8701 2.3916 4.4105 0.5807 3.6119 -0.0873 1.2699 -11.3318 -2.7594 0.1006 -14.3777 -1.4124 -4.1382 -6.1270 7.9974 -7.5941 24.4834 2.2301 -2.9336 9.0279 -0.0000 0.0000 0.0000 -90.1088 12.8365 -28.4463 12.7653 -20.9424 -2.3687 -0.0000 -0.0000 20.6106 15.7149 -10.0484 -2.8106 -7.1250 0.0000 -0.0000 -8.0211 19.6016 4.9134 -0.0000 0.0000 0.0000 93.9897 -10.8703 -18.6769 -12.4686 20.5037 -2.2637 0.0000 0.0000 46.7309 8.7906 -31.0815 -4.5645 7.1250 -0.0000 -0.0000 42.7485 -55.6760 -12.8826
-0.5631 17.4739 8.1152 -5.9828 -0.3650 8.0871 0.0000 0.0000 0.0000 -21.0193 -36.1519 21.0736 0.0342 -1.1931 -3.2803 -5.3037 40.8994 -37.4955 0.3083 3.5695 9.8684 0.0000 0.0000 0.0000 25.1458 23.8963 6.7800 -0.0088 -0.6059 1.6650 0.5814 -17.2681 -18.0882 -0.0192 -0.8944 2.4582 4.4175 0.5338 3.6650 0.0901 1.2270 -11.2171 -2.5598 0.0971 -14.2786 -1.8118 -3.8016 -5.9805 8.4307 -7.1063 23.9660 2.4940 -2.7161 8.8215 -0.0000 -0.0000 0.0000 -90.5527 12.5406 -28.9160 12.7613 -20.9364 -2.3673 -0.0000 -0.0000 20.9971 15.7895 -9.8832 -2.7787 -7.1250 0.0000 -0.0000 -7.9708 19.7669 4.8522 -0.0000 -0.0000 0.0000 93.5078 -10.5535 -18.4694 -12.4082 20.4140 -2.2426 0.0000 0.0000 46.6510 8.7519 -30.9746 -4.5301 7.1250 -0.0000 -0.0000 42.6154 -55.6022 -12.7489
-0.5638 17.4739 8.1155 -5.9860 -0.3417 8.0821 0.0000 0.0000 0.0000 -21.0596 -36.2218 21.1524 0.0345 -1.1994 -3.2975 -5.2155 40.8314 -37.7915 0.3402 3.7481 10.3691 0.0000 0.0000 0.0000 25.1562 23.8919 6.7826 -0.0090 -0.6128 1.6839 0.5815 -17.2921 -18.1356 -0.0219 -0.9558 2.6272 4.4541 0.4814 3.7022 0.2681 1.1795 -11.1209 -2.3756 0.0873 -14.1926 -1.7001 -3.4903 -5.5644 8.2555 -6.5579 23.1700 2.4680 -2.4982 8.4265 -0.0000 -0.0000 0.0000 -90.9846 12.2515 -29.4160 12.7313 -20.8923 -2.3566 -0.0000 -0.0000 21.3773 15.8897 -9.8481 -2.7874 -7.1250 0.0000 -0.0000 -7.9002 19.7971 4.8030 -0.0000 -0.0000 0.0000 93.0745 -10.2891 -18.1887 -12.4071 20.4123 -2.2422 0.0000 0.0000 46.5000 8.7677 -30.9503 -4.5352 7.1250 -0.0000 -0.0000 42.6073 -55.5805 -12.7218
-0.5634 17.4738 8.1153 -6.0079 -0.3179 8.0686 0.0000 0.0000 0.0000 -21.0749 -36.2769 21.2252 0.0348 -1.2038 -3.3097 -5.1776 40.8010 -37.9141 0.3546 3.8260 10.5876 0.0000 0.0000 0.0000 25.1809 23.8532 6.7798 -0.0091 -0.6160 1.6927 0.5803 -17.2878 -18.1430 -0.0223 -0.9642 2.6502 4.5220 0.4320 3.7586 0.4495 1.1410 -11.0322 -2.2073 0.0778 -14.1275 -2.0441 -3.4008 -5.8295 8.1623 -6.3569 23.1134 2.5089 -2.4354 8.4504 0.0000 -0.0000 0.0000 -91.4079 12.0044 -29.7812 12.6977 -20.8427 -2.3446 -0.0000 -0.0000 21.6011 16.0093 -9.8361 -2.8061 -7.1250 0.0000 -0.0000 -7.8154 19.8024 4.7495 0.0000 -0.0000 0.0000 92.6657 -10.0552 -17.9310 -12.4154 20.4248 -2.2452 0.0000 0.0000 46.3931 8.8007 -30.9947 -4.5583 7.1250 -0.0000 -0.0000 42.6774 -55.6077 -12.7791
-0.5671 17.4769 8.1155 -5.7993 -0.3879 8.1274 0.0000 0.0000 0.0000 -21.3135 -36.4183 21.2085 0.0339 -1.1879 -3.2660 -5.2432 40.9405 -37.9523 0.3526 3.8149 10.5565 0.0000 0.0000 0.0000 24.9509 24.0818 6.8069 -0.0084 -0.5935 1.6309 0.6097 -17.4969 -18.1585 -0.0260 -1.0402 2.8594 4.2499 0.4122 3.7264 0.5945 1.0967 -10.9630 -1.8878 0.1005 -14.0286 -3.2930 -3.5244 -7.0644 8.6838 -6.5530 24.0980 2.8737 -2.5278 9.0890 0.0000 0.0000 0.0000 -91.8394 11.7728 -29.8825 12.6899 -20.8312 -2.3419 -0.0000 -0.0000 21.4446 16.1413 -9.3558 -2.6937 -7.1250 0.0000 -0.0000 -7.7293 20.2890 4.6112 0.0000 0.0000 0.0000 92.1935 -9.7584 -17.7322 -12.3207 20.2838 -2.2122 0.0000 0.0000 46.1842 8.9133 -31.2546 -4.6520 7.1250 -0.0000 -0.0000 43.0184 -55.7827 -13.1075
-0.5744 17.4835 8.1343 -5.7035 -0.2841 8.4283 0.0000 0.0000 0.0000 -21.2131 -36.5719 20.8949 0.0345 -1.1988 -3.2959 -5.4290 41.1568 -37.5494 0.3012 3.5287 9.7544 0.0000 0.0000 0.0000 24.8541 24.3791 6.8017 -0.0058 -0.4936 1.3564 0.6711 -17.9362 -18.2112 -0.0309 -1.1355 3.1216 4.0434 0.3155 3.1051 1.0024 0.9494 -10.8068 -1.2950 0.0958 -13.4626 -5.4928 -3.6548 -8.4546 9.6010 -6.6096 24.6586 3.5588 -2.6100 9.6587 0.0000 0.0000 0.0000 -92.7861 11.3124 -30.0418 12.7377 -20.9016 -2.3589 -0.0000 -0.0000 20.9871 16.2064 -8.3943 -2.4296 -7.1250 0.0000 -0.0000 -7.7022 21.2754 4.4219 0.0000 0.0000 0.0000 91.1551 -9.1365 -17.3191 -12.0820 19.9275 -2.1301 0.0000 0.0000 45.7969 9.0722 -31.6206 -4.7855 7.1250 -0.0000 -0.0000 43.5037 -56.0274 -13.5764
-0.5787 17.4868 8.1411 -5.6090 -0.2835 8.5601 0.0000 0.0000 0.0000 -21.2160 -36.6233 20.7468 0.0349 -1.2065 -3.3172 -5.5163 41.2693 -37.3905 0.2776 3.3891 9.3639 0.0000 0.0000 0.0000 24.7408 24.5335 6.7814 -0.0049 -0.4521 1.2422 0.7039 -18.1447 -18.1915 -0.0307 -1.1309 3.1091 3.9291 0.3221 3.0213 0.9427 0.9409 -10.9598 -1.2942 0.0957 -13.5926 -5.2688 -4.5152 -9.1348 8.1907 -7.5605 25.2952 2.9030 -3.1512 10.0404 -0.0000 -0.0000 0.0000 -92.7075 11.6026 -29.6889 12.7640 -20.9404 -2.3683 -0.0000 -0.0000 20.5419 16.1381 -7.8810 -2.2720 -7.1250 0.0000 -0.0000 -7.7646 21.8072 4.3638 -0.0000 -0.0000 0.0000 91.1867 -9.3132 -17.3847 -12.0077 19.8162 -2.1049 0.0000 0.0000 45.5702 9.1508 -31.7411 -4.8438 7.1250 -0.0000 -0.0000 43.6882 -56.1020 -13.7360
